HIERARCHY
ROOT Hips
{
 OFFSET 0.000000 0.000000 0.000000
 CHANNELS 6 Xposition Yposition Zposition Yrotation Xrotation Zrotation
 JOINT Chest
 {
  OFFSET 0.000000 9.585900 0.002600
  CHANNELS 3 Yrotation Xrotation Zrotation
  JOINT Chest2
  {
   OFFSET 0.000000 9.601200 -0.005300
   CHANNELS 3 Yrotation Xrotation Zrotation
   JOINT Chest3
   {
    OFFSET 0.000000 9.561800 0.000000
    CHANNELS 3 Yrotation Xrotation Zrotation
    JOINT Chest4
    {
     OFFSET 0.000000 9.552100 0.000000
     CHANNELS 3 Yrotation Xrotation Zrotation
     JOINT Neck
     {
      OFFSET 0.000000 14.453000 0.000000
      CHANNELS 3 Yrotation Xrotation Zrotation
      JOINT Head
      {
       OFFSET 0.000000 8.936500 -0.011300
       CHANNELS 3 Yrotation Xrotation Zrotation
       End Site
       {
        OFFSET 0.000000 17.073600 -0.006000
       }
      }
     }
     JOINT RightCollar
     {
      OFFSET -2.921100 9.558500 0.000000
      CHANNELS 3 Yrotation Xrotation Zrotation
      JOINT RightShoulder
      {
       OFFSET -13.519700 0.000000 0.000000
       CHANNELS 3 Yrotation Xrotation Zrotation
       JOINT RightElbow
       {
        OFFSET 0.000000 -29.696600 0.000000
        CHANNELS 3 Yrotation Xrotation Zrotation
        JOINT RightWrist
        {
         OFFSET 0.000000 -24.004700 0.000000
         CHANNELS 3 Yrotation Xrotation Zrotation
         End Site
         {
          OFFSET 0.000000 -17.728500 0.000000
         }
        }
       }
      }
     }
     JOINT LeftCollar
     {
      OFFSET 2.921100 9.558500 0.000000
      CHANNELS 3 Yrotation Xrotation Zrotation
      JOINT LeftShoulder
      {
       OFFSET 13.519700 0.000000 0.000000
       CHANNELS 3 Yrotation Xrotation Zrotation
       JOINT LeftElbow
       {
        OFFSET 0.000000 -29.696600 0.000000
        CHANNELS 3 Yrotation Xrotation Zrotation
        JOINT LeftWrist
        {
         OFFSET 0.000000 -24.004700 0.000000
         CHANNELS 3 Yrotation Xrotation Zrotation
         End Site
         {
          OFFSET 0.000000 -17.728500 0.000000
         }
        }
       }
      }
     }
    }
   }
  }
 }
 JOINT RightHip
 {
  OFFSET -7.771700 -0.012900 -0.001300
  CHANNELS 3 Yrotation Xrotation Zrotation
  JOINT RightKnee
  {
   OFFSET 0.000000 -40.869800 0.001200
   CHANNELS 3 Yrotation Xrotation Zrotation
   JOINT RightAnkle
   {
    OFFSET 0.000000 -39.717900 0.002100
    CHANNELS 3 Yrotation Xrotation Zrotation
    JOINT RightToe
    {
     OFFSET 0.000000 -4.965400 11.033500
     CHANNELS 3 Yrotation Xrotation Zrotation
     End Site
     {
      OFFSET 0.000000 -1.423100 5.872300
     }
    }
   }
  }
 }
 JOINT LeftHip
 {
  OFFSET 7.771700 -0.012900 -0.001300
  CHANNELS 3 Yrotation Xrotation Zrotation
  JOINT LeftKnee
  {
   OFFSET 0.000000 -40.869800 0.001200
   CHANNELS 3 Yrotation Xrotation Zrotation
   JOINT LeftAnkle
   {
    OFFSET 0.000000 -39.717900 0.002100
    CHANNELS 3 Yrotation Xrotation Zrotation
    JOINT LeftToe
    {
     OFFSET 0.000000 -4.965400 11.033500
     CHANNELS 3 Yrotation Xrotation Zrotation
     End Site
     {
      OFFSET 0.000000 -1.423100 5.872300
     }
    }
   }
  }
 }
}
MOTION
Frames: 16
Frame Time: 0.008333
-86.202856 50.177118 -10.036255 166.207162 -7.380491 0.254699 2.765296 5.338342 0.911120 0.072256 0.172070 -0.004295 0.201009 0.356676 0.031702 2.481816 5.041466 0.254160 2.899348 20.416818 0.324129 5.211650 2.178594 -0.262214 2.007378 0.219298 -2.245869 -14.076398 -19.776886 -30.736851 -81.867299 -72.916650 108.805531 -4.281898 -3.712349 -31.918056 -2.158985 -2.360809 6.935088 19.964067 -5.834888 24.495198 6.126193 -65.509560 -29.122206 0.229846 7.220427 4.436846 -2.308897 -73.487148 -3.742116 -162.171797 83.041508 -161.766840 -6.854086 -16.839381 1.110473 -0.118949 0.279380 -0.010104 -12.506276 -76.820459 25.649699 117.083401 78.276366 114.343834 -15.273027 -23.595770 -0.376619 -0.197041 -1.006451 -0.106433
-86.200534 50.171045 -10.043680 166.192213 -7.389902 0.235663 2.764212 5.334555 0.920248 0.047439 0.157044 -0.013418 0.204765 0.354787 0.030228 2.507264 5.058159 0.271179 2.856073 20.372515 0.273616 5.253409 2.170869 -0.336999 1.860110 0.293649 -2.241512 -14.445848 -19.845712 -30.173593 -83.372021 -73.106864 110.274458 -4.206004 -3.488761 -31.681623 -2.205820 -2.424544 6.902378 20.180437 -5.899731 24.596090 6.595979 -66.278207 -29.594290 0.177579 7.379738 4.460028 -2.359509 -73.479276 -3.644216 -162.025285 83.025709 -161.645377 -6.863548 -16.850212 1.128204 -0.112234 0.290657 -0.017109 -12.674615 -76.796683 25.823713 117.164779 78.271186 114.418125 -15.277230 -23.625147 -0.393204 -0.184691 -0.994796 -0.097409
-86.197795 50.165014 -10.050206 166.168207 -7.402178 0.213628 2.711966 5.301103 0.905808 0.075876 0.174988 0.001489 0.209763 0.350836 0.028757 2.482189 5.035807 0.273669 2.900599 20.397377 0.261611 5.271249 2.140533 -0.432145 1.765647 0.434532 -2.212746 -14.793396 -19.895600 -29.537193 -84.819767 -73.285717 111.679394 -4.146119 -3.285224 -31.440464 -2.204013 -2.435071 6.861277 20.404130 -5.935990 24.644507 6.885738 -67.088067 -29.871236 0.116989 7.546862 4.523787 -2.410849 -73.468778 -3.532722 -161.870044 83.012955 -161.514847 -6.881442 -16.856679 1.154319 -0.108542 0.298124 -0.022950 -12.845784 -76.770115 26.009678 117.252089 78.267806 114.505051 -15.296447 -23.653659 -0.408118 -0.186704 -0.985289 -0.093105
-86.196019 50.158782 -10.053808 166.146535 -7.403828 0.191780 2.670486 5.270276 0.902079 0.100856 0.185793 0.011476 0.138156 0.310364 0.005530 2.444375 5.006771 0.275575 3.028948 20.459040 0.262809 5.293488 2.115150 -0.525840 1.746449 0.635488 -2.159656 -15.118252 -19.919741 -28.833866 -86.199466 -73.450883 113.011939 -4.100179 -3.086642 -31.189793 -2.126768 -2.399814 6.814785 20.631652 -5.940347 24.644146 7.017758 -67.923203 -29.977310 0.064672 7.712877 4.611167 -2.459693 -73.469490 -3.422586 -161.694450 83.002381 -161.364566 -6.901319 -16.861813 1.172361 -0.106061 0.307642 -0.016876 -12.976071 -76.759240 26.157223 117.302257 78.267534 114.563509 -15.318221 -23.674795 -0.421777 -0.203773 -0.975292 -0.089811
-86.196004 50.152712 -10.056884 166.128637 -7.407782 0.177728 2.633011 5.248664 0.892856 0.099089 0.183909 0.011465 0.135017 0.306994 0.005431 2.387643 4.973110 0.269007 3.085496 20.468509 0.231297 5.352468 2.121345 -0.600260 1.687520 0.831179 -2.102942 -15.421622 -19.910112 -28.066802 -87.492423 -73.608082 114.251106 -4.046520 -2.873898 -30.899712 -2.088322 -2.381040 6.752663 20.867389 -5.916746 24.591501 7.014531 -68.758485 -29.943468 0.032904 7.867451 4.720477 -2.488919 -73.470225 -3.350723 -161.639332 82.994346 -161.329254 -6.904511 -16.868657 1.174066 -0.120765 0.316925 -0.001730 -13.071689 -76.748869 26.264652 117.331856 78.266227 114.605687 -15.360690 -23.686691 -0.435843 -0.137131 -0.969788 -0.074178
-86.192248 50.146891 -10.057528 166.106875 -7.410524 0.137753 2.614305 5.231020 0.914787 0.065837 0.169515 0.000570 0.146497 0.310263 0.010565 2.352900 4.953614 0.264633 3.061248 20.432560 0.156925 5.471411 2.161746 -0.645186 1.604706 1.026195 -2.037606 -15.705535 -19.860017 -27.234587 -88.669284 -73.772088 115.367257 -3.966742 -2.645327 -30.544406 -2.072407 -2.362903 6.686000 21.112879 -5.872115 24.479055 6.913393 -69.568480 -29.813799 0.027261 7.998897 4.857727 -2.599531 -73.469312 -3.188723 -161.572562 82.990995 -161.277847 -6.905631 -16.864898 1.180421 -0.136009 0.317773 -0.003437 -13.334090 -76.732516 26.525070 117.346004 78.243862 114.616332 -15.291016 -23.688536 -0.472444 -0.127001 -0.968639 -0.071986
-86.193517 50.141270 -10.056306 166.110537 -7.402227 0.119874 2.545073 5.198659 0.904375 0.099763 0.180402 0.010674 0.107875 0.294537 -0.000014 2.319143 4.935234 0.258265 3.073325 20.423207 0.111052 5.557582 2.179939 -0.702358 1.519309 1.226443 -1.964887 -15.971632 -19.765182 -26.333766 -89.695067 -73.957971 116.333621 -3.862894 -2.416863 -30.126352 -2.051261 -2.326777 6.616951 21.360097 -5.810282 24.302926 6.772170 -70.335094 -29.648076 0.050496 8.100850 5.034295 -2.640865 -73.480378 -3.121643 -161.452345 82.987579 -161.172169 -6.935714 -16.856677 1.193734 -0.112816 0.316590 -0.000453 -13.519748 -76.731216 26.686276 117.352972 78.227868 114.622912 -15.297995 -23.744117 -0.496219 -0.088920 -0.908619 -0.058050
-86.192329 50.136415 -10.054559 166.059162 -7.400658 0.093188 2.508793 5.168494 0.903539 0.154587 0.196095 0.025883 0.065519 0.280173 -0.010281 2.287079 4.917084 0.252291 3.149289 20.446147 0.106502 5.581676 2.168353 -0.777638 1.430767 1.427279 -1.888970 -16.218754 -19.622206 -25.364148 -90.544313 -74.173314 117.128245 -3.747223 -2.204197 -29.655821 -1.982726 -2.281303 6.589477 21.560036 -5.705834 24.020690 6.652698 -71.043192 -29.503562 0.102895 8.175681 5.263099 -2.655324 -73.482654 -3.016098 -161.206435 82.985978 -160.933823 -6.955527 -16.852565 1.206268 -0.093541 0.325457 -0.007068 -13.686619 -76.721069 26.887079 117.359485 78.214546 114.637145 -15.309699 -23.743729 -0.508105 -0.104121 -0.904265 -0.063481
-86.196930 50.132402 -10.053934 166.030674 -7.402804 0.098128 2.459175 5.150156 0.873510 0.098310 0.175818 0.010962 0.117620 0.296004 0.004007 2.255636 4.899662 0.246679 3.158774 20.437799 0.065891 5.666296 2.184332 -0.831025 1.340948 1.625659 -1.809015 -16.450527 -19.428472 -24.326339 -91.184049 -74.418224 117.719318 -3.624708 -2.024148 -29.133855 -1.908836 -2.231916 6.562680 21.740126 -5.564166 23.675275 6.592219 -71.682231 -29.413180 0.179549 8.232856 5.546200 -2.593469 -73.485952 -3.027827 -161.134952 82.986913 -160.875173 -6.971574 -16.857297 1.209438 -0.094601 0.338653 -0.001950 -13.732836 -76.709842 26.930659 117.326326 78.194066 114.611036 -15.335017 -23.742523 -0.516754 -0.119793 -0.899476 -0.070938
-86.199267 50.129240 -10.052009 166.003400 -7.405298 0.087533 2.447813 5.141748 0.872825 0.036992 0.156997 -0.007165 0.135265 0.298783 0.009346 2.223731 4.883659 0.240741 3.165434 20.429205 0.028172 5.749297 2.197892 -0.879833 1.252162 1.817468 -1.723089 -16.672918 -19.178654 -23.224450 -91.550808 -74.686198 118.045300 -3.502810 -1.899266 -28.556479 -1.915339 -2.106643 6.415690 21.981121 -5.489333 23.357801 6.591670 -72.252474 -29.377454 0.272749 8.272431 5.865596 -2.592199 -73.486799 -2.981124 -161.049155 82.989294 -160.800370 -6.982004 -16.855843 1.217032 -0.095476 0.346106 -0.002854 -13.787565 -76.702344 27.001557 117.317711 78.186532 114.609990 -15.359125 -23.740672 -0.511315 -0.111611 -0.892284 -0.074816
-86.196419 50.127069 -10.048952 165.939060 -7.412583 0.049976 2.415637 5.119031 0.879974 0.054887 0.161426 -0.001534 0.132593 0.296321 0.009003 2.191369 4.868734 0.235048 3.192746 20.429111 0.005019 5.805725 2.199796 -0.929842 1.168382 1.998252 -1.633321 -16.882793 -18.864206 -22.065621 -91.577056 -74.962539 118.038626 -3.398221 -1.838263 -27.935263 -1.885632 -1.975628 6.309086 22.172891 -5.367242 22.934726 6.639150 -72.762098 -29.385196 0.371208 8.289963 6.189267 -2.674797 -73.479465 -2.809283 -160.950589 83.000231 -160.715981 -6.976544 -16.840911 1.227519 -0.112763 0.348187 -0.008374 -13.949458 -76.682974 27.203218 117.315959 78.174808 114.639035 -15.351314 -23.749107 -0.536863 -0.078102 -0.883048 -0.072860
-86.194001 50.126012 -10.047546 165.905811 -7.432136 0.013721 2.349293 5.107421 0.881443 0.073441 0.165991 0.004846 0.130001 0.293948 0.008679 2.159988 4.854700 0.229865 3.217263 20.427868 -0.015657 5.881779 2.221207 -0.948546 1.094318 2.168523 -1.544677 -17.072483 -18.482016 -20.854446 -91.191201 -75.226548 117.632205 -3.324106 -1.828983 -27.299258 -1.837294 -1.833892 6.216697 22.335809 -5.213227 22.432137 6.719182 -73.219803 -29.431864 0.459905 8.296926 6.491834 -2.745213 -73.455476 -2.681238 -160.797598 83.006888 -160.565987 -6.977975 -16.838638 1.232686 -0.113803 0.354828 -0.007119 -14.114264 -76.655580 27.370638 117.319454 78.161792 114.676169 -15.342671 -23.751491 -0.562509 -0.052160 -0.881191 -0.071569
-86.197726 50.125314 -10.044079 165.871820 -7.433163 0.011108 2.297569 5.081939 0.855806 0.116347 0.179609 0.017727 0.083396 0.276981 -0.004510 2.131017 4.842268 0.224569 3.239402 20.426467 -0.032092 5.957651 2.241995 -0.968934 1.030477 2.331799 -1.459290 -17.228285 -18.038970 -19.597067 -90.289881 -75.459858 116.717989 -3.292066 -1.857129 -26.677739 -1.785397 -1.666118 6.119374 22.496317 -5.054453 21.872410 6.816932 -73.630045 -29.525696 0.528251 8.311175 6.750370 -2.706681 -73.454412 -2.668895 -160.697039 83.014741 -160.471984 -6.986739 -16.838526 1.241569 -0.108475 0.365629 -0.010099 -14.200609 -76.650656 27.442460 117.287674 78.125880 114.647358 -15.288647 -23.737503 -0.575943 -0.113013 -0.893470 -0.092502
-86.198871 50.125226 -10.039317 165.794432 -7.432405 -0.001225 2.286810 5.054018 0.844348 0.161798 0.191945 0.030772 0.081476 0.276380 -0.004701 2.056018 4.816873 0.205890 3.259011 20.426020 -0.044066 6.008184 2.237711 -1.011430 0.974217 2.489645 -1.377570 -17.324330 -17.543896 -18.297586 -88.758292 -75.648430 115.159651 -3.316383 -1.908989 -26.098518 -1.731757 -1.476297 6.017873 22.664910 -4.895140 21.269776 6.920423 -73.994253 -29.673916 0.572290 8.342968 6.939425 -2.692243 -73.454421 -2.592112 -160.580805 83.032284 -160.358491 -6.988592 -16.829119 1.244231 -0.106499 0.373800 -0.016902 -14.307338 -76.643694 27.587479 117.282477 78.096610 114.648142 -15.250917 -23.724542 -0.586675 -0.149186 -0.905915 -0.105249
-86.192123 50.126416 -10.038639 165.714238 -7.468889 -0.050903 2.280355 5.062733 0.872190 0.162466 0.189732 0.030497 0.054524 0.268020 -0.011349 2.053810 4.813480 0.208376 3.332909 20.445494 -0.037266 5.995529 2.215841 -1.042381 0.918798 2.644151 -1.301962 -17.338032 -17.004753 -16.949835 -86.482516 -75.769064 112.834535 -3.398647 -1.966426 -25.599156 -1.674574 -1.266521 5.913325 22.837540 -4.736242 20.629867 6.995900 -74.315931 -29.852235 0.590789 8.393140 7.049064 -2.818806 -73.410325 -2.367534 -160.444102 83.049810 -160.223540 -6.991493 -16.815972 1.242683 -0.111693 0.367630 -0.028323 -14.536647 -76.590594 27.848446 117.326381 78.082401 114.747802 -15.224489 -23.736194 -0.648658 -0.106566 -0.909209 -0.089964
-86.187883 50.127670 -10.036227 165.626528 -7.493104 -0.085300 2.325606 5.072337 0.902274 0.044727 0.155791 -0.004213 0.098733 0.279001 0.001559 2.053533 4.809866 0.211727 3.316709 20.440413 -0.048581 5.990070 2.208896 -1.064242 0.856558 2.798819 -1.235886 -17.267592 -16.432154 -15.542307 -83.386946 -75.785109 109.679970 -3.532358 -2.019035 -25.222111 -1.610208 -1.035230 5.813798 23.006932 -4.576422 19.944760 7.006646 -74.601661 -30.024867 0.586420 8.463273 7.088063 -2.876944 -73.381183 -2.208679 -160.293340 83.065559 -160.073786 -6.966468 -16.818031 1.251389 -0.130024 0.384092 -0.045492 -14.701670 -76.550850 28.064359 117.329122 78.056238 114.765157 -15.161213 -23.677124 -0.663051 -0.137905 -0.977299 -0.119932
